<?xml version="1.0" encoding="utf-8"?>
<!-- Generator: Adobe Illustrator 26.3.1, SVG Export Plug-In . SVG Version: 6.00 Build 0)  -->
<svg version="1.1" id="Layer_1" xmlns="http://www.w3.org/2000/svg" xmlns:xlink="http://www.w3.org/1999/xlink" x="0px" y="0px"
	 viewBox="0 0 19.03 23.42" style="enable-background:new 0 0 19.03 23.42;" xml:space="preserve">
<style type="text/css">
	.st0{fill:#666666;}
</style>
<path class="st0" d="M3.88,15.84v-0.43h8.76v0.43H3.88z M3.88,12.9v-0.43h8.76v0.43H3.88z M3.88,9.95V9.53h8.76v0.43H3.88z
	 M3.88,7.01V6.59h8.76v0.43H3.88z M3.58,19.66L13.9,19.7c-0.01-4.72-0.03-9.88-0.03-14.6c0-0.38,0.11-0.68,0.28-0.92H3.98
	c-0.73,0-1.32,0.6-1.32,1.32v13.25C2.66,19.25,3.07,19.66,3.58,19.66z M15.43,4.17L15.43,4.17l-0.04,0
	c-0.75,0.02-0.89,0.69-0.88,1.32l0,0.53h1.83C16.35,5.44,16.53,4.18,15.43,4.17z M14.15,20.34L3.58,20.3
	c-0.86,0-1.55-0.69-1.55-1.55V5.49c0-1.08,0.88-1.96,1.96-1.96h11.45c0.78,0,1.55,0.54,1.55,1.56c0,0.76,0.15,1.56-0.32,1.56
	c-1.06,0-1.73,0.04-2.15,0.03l0.03,12.99C14.55,19.96,14.51,20.34,14.15,20.34z"/>
</svg>
