<?xml version="1.0" encoding="UTF-8"?><svg id="Layer_1" xmlns="http://www.w3.org/2000/svg" viewBox="0 0 14.08 16.8"><defs><style>.cls-1{fill:#666;}</style></defs><path class="cls-1" d="M6.81,3.25h-2.81c.44,4.23,.88,8.47,1.33,12.7,0,.09,.02,.17,.03,.26,.44,.02,.95,0,1.4,.01,.08,0,.04,0,.04-.1,0-.35,0-.71,0-1.06,0-3.94,0-7.87,0-11.81m.46,0c0,4.26,.01,8.53,0,12.79,0,.24-.06,.18,.2,.18,.43,0,.87,0,1.3,0,.09-.63,.14-1.31,.21-1.94,.38-3.67,.77-7.35,1.16-11.02h-2.87Zm-3.73,0H.83c.84,3.97,1.68,7.95,2.53,11.92,.08,.37,.05,.66,.41,.9,.26,.18,.56,.15,.85,.15,.09,0,.18,0,.27,0-.02-.42-.09-.92-.14-1.34-.33-3.17-.67-6.34-1-9.51-.04-.34-.07-.68-.11-1.03l-.1-.97v-.11Zm9.61,0c-.85,0-1.7,0-2.56,0-.04,.36-.08,.72-.11,1.08-.03,.31-.06,.61-.1,.92-.32,3.03-.64,6.05-.95,9.08-.06,.62-.15,1.27-.19,1.89,.28,0,.72,.04,.97-.09,.27-.14,.43-.39,.46-.69,.03-.26,.13-.69,.19-.96,.76-3.73,1.52-7.45,2.28-11.18v-.05ZM8.25,0s.04,.29,.04,.66c0,.09,0,.17,0,.25h5.62c.1,0,.18,.13,.18,.29,0,.16-.08,.29-.18,.29H.18C.08,1.49,0,1.36,0,1.2c0-.16,.08-.29,.18-.29H5.79c0-.08,0-.16,0-.25,0-.36,.02-.66,.04-.65h2.42ZM.22,3.11c-.07-.16,0-.44,.2-.44,2.21,0,4.42,0,6.62,0s4.42,0,6.63,0c.07,0,.13,.04,.17,.1,.04,.05,.06,.12,.06,.19,0,.13-.06,.23-.15,.27-.07,.34-.14,.68-.21,1.01-.75,3.68-1.51,7.35-2.25,11.03-.06,.31-.02,.44-.18,.76-.26,.5-.74,.76-1.31,.76-1.44,0-2.88,0-4.32,0-.41,0-.83,0-1.25,0,0,0-.52,.04-1-.41,0,0-.37-.32-.41-.94-.01-.19-.14-.7-.18-.91C1.91,11.1,1.18,7.66,.45,4.22c-.08-.37-.16-.74-.24-1.12Z"/></svg>